<svg width="18" height="24" viewBox="0 4 18 24" fill="none" xmlns="http://www.w3.org/2000/svg">
<path d="M8.25 7.5C8.25 7.24112 8.43188 7.03125 8.65625 7.03125H14.3438C14.5681 7.03125 14.75 7.24112 14.75 7.5C14.75 7.75888 14.5681 7.96875 14.3438 7.96875H8.65625C8.43188 7.96875 8.25 7.75888 8.25 7.5Z" fill="white"/>
<g filter="url(#filter0_i_3810_906)">
<path fill-rule="evenodd" clip-rule="evenodd" d="M0 13C0 11.8954 0.89543 11 2 11H9.5C10.5158 11 11.3548 11.7573 11.483 12.7382L14.5939 11.3556C15.2551 11.0617 16 11.5457 16 12.2694V19.7306C16 20.4543 15.2551 20.9383 14.5939 20.6444L11.483 19.2618C11.3548 20.2427 10.5158 21 9.5 21H2C0.89543 21 0 20.1046 0 19V13Z" fill="white"/>
</g>
<defs>
<filter id="filter0_i_3810_906" x="0" y="8" width="16" height="20" filterUnits="userSpaceOnUse" color-interpolation-filters="sRGB">
<feFlood flood-opacity="0" result="BackgroundImageFix"/>
<feBlend mode="normal" in="SourceGraphic" in2="BackgroundImageFix" result="shape"/>
<feColorMatrix in="SourceAlpha" type="matrix" values="0 0 0 0 0 0 0 0 0 0 0 0 0 0 0 0 0 0 0 0" result="hardAlpha"/>
<feOffset dy="4"/>
<feGaussianBlur stdDeviation="2"/>
<feComposite in2="hardAlpha" operator="arithmetic" k2="-1" k3="1"/>
<feColorMatrix type="matrix" values="0 0 0 0 0 0 0 0 0 0 0 0 0 0 0 0 0 0 0 0"/>
<feBlend mode="normal" in2="shape" result="effect1_innerShadow_3810_906"/>
</filter>
</defs>
</svg>
