<svg width="21" height="21" viewBox="0 0 16 20" fill="none" xmlns="http://www.w3.org/2000/svg">
<rect x="0.5" y="5.5" width="10.4" height="9" rx="1.5" fill="white"/>
<rect x="0.5" y="5.5" width="10.4" height="9" rx="1.5" stroke="white"/>
<rect x="0.5" y="5.5" width="10.4" height="9" rx="1.5" stroke="white" stroke-opacity="0.2"/>
<path d="M9.26579 9.57272L14.8903 6.15449C15.2235 5.95199 15.65 6.19186 15.65 6.58178V13.4182C15.65 13.8081 15.2235 14.048 14.8903 13.8455L9.26579 10.4273C8.94535 10.2325 8.94535 9.76746 9.26579 9.57272Z" fill="white"/>
<path d="M9.26579 9.57272L14.8903 6.15449C15.2235 5.95199 15.65 6.19186 15.65 6.58178V13.4182C15.65 13.8081 15.2235 14.048 14.8903 13.8455L9.26579 10.4273C8.94535 10.2325 8.94535 9.76746 9.26579 9.57272Z" stroke="white"/>
<path d="M9.26579 9.57272L14.8903 6.15449C15.2235 5.95199 15.65 6.19186 15.65 6.58178V13.4182C15.65 13.8081 15.2235 14.048 14.8903 13.8455L9.26579 10.4273C8.94535 10.2325 8.94535 9.76746 9.26579 9.57272Z" stroke="white" stroke-opacity="0.2"/>
<path d="M12.9834 4.33335H11.0834V3.66669H12.9834V1.66669H13.6167V3.66669H15.5167V4.33335H13.6167V6.33335H12.9834V4.33335Z" fill="white"/>
</svg>
