<svg width="22" height="22" viewBox="0 2 18 22" fill="none" xmlns="http://www.w3.org/2000/svg">
<g filter="url(#filter0_i_3808_902)">
<path fill-rule="evenodd" clip-rule="evenodd" d="M0 11C0 9.89543 0.89543 9 2 9H9.5C10.5158 9 11.3548 9.75732 11.483 10.7382L14.5939 9.35557C15.2551 9.06166 16 9.54572 16 10.2694V17.7306C16 18.4543 15.2551 18.9383 14.5939 18.6444L11.483 17.2618C11.3548 18.2427 10.5158 19 9.5 19H2C0.89543 19 0 18.1046 0 17V11Z" fill="white"/>
</g>
<path d="M11.5 6.5H8.5V5.5H11.5V2.5H12.5V5.5H15.5V6.5H12.5V9.5H11.5V6.5Z" fill="white"/>
<defs>
<filter id="filter0_i_3808_902" x="0" y="7" width="16" height="20" filterUnits="userSpaceOnUse" color-interpolation-filters="sRGB">
<feFlood flood-opacity="0" result="BackgroundImageFix"/>
<feBlend mode="normal" in="SourceGraphic" in2="BackgroundImageFix" result="shape"/>
<feColorMatrix in="SourceAlpha" type="matrix" values="0 0 0 0 0 0 0 0 0 0 0 0 0 0 0 0 0 0 0 0" result="hardAlpha"/>
<feOffset dy="4"/>
<feGaussianBlur stdDeviation="2"/>
<feComposite in2="hardAlpha" operator="arithmetic" k2="-1" k3="1"/>
<feColorMatrix type="matrix" values="0 0 0 0 0 0 0 0 0 0 0 0 0 0 0 0 0 0 0 0"/>
<feBlend mode="normal" in2="shape" result="effect1_innerShadow_3808_902"/>
</filter>
</defs>
</svg>
